<svg xmlns="http://www.w3.org/2000/svg" viewBox="0 0 320 170" width="320" height="170" role="img" aria-label="Naturgewalt">
<defs>
<linearGradient id="w1q3byrzg" x1="0" y1="0" x2="1" y2="1">
<stop offset="0" stop-color="#4c7650" stop-opacity="0.95"/>
<stop offset="1" stop-color="#161815" stop-opacity="0.95"/>
</linearGradient>
<radialGradient id="w1q3byrzs" cx="0.5" cy="0.42" r="0.6">
<stop offset="0" stop-color="#ffffff" stop-opacity="0.16"/>
<stop offset="1" stop-color="#ffffff" stop-opacity="0"/>
</radialGradient>
</defs>
<rect width="320" height="170" fill="#161815"/>
<rect width="320" height="170" fill="url(#w1q3byrzg)"/>
<circle cx="82.6" cy="96.3" r="1.5" fill="#ffffff" opacity="0.2"/><circle cx="182.4" cy="144.3" r="1.9" fill="#ffffff" opacity="0.1"/><circle cx="49" cy="145.4" r="1.1" fill="#ffffff" opacity="0.1"/><circle cx="232" cy="161.8" r="1.9" fill="#ffffff" opacity="0.1"/><circle cx="275.3" cy="130.1" r="1.1" fill="#ffffff" opacity="0.2"/><circle cx="15" cy="28.8" r="1.3" fill="#ffffff" opacity="0.2"/><circle cx="1.1" cy="154.4" r="0.6" fill="#ffffff" opacity="0.1"/><circle cx="155.8" cy="98.7" r="1.1" fill="#ffffff" opacity="0.2"/><circle cx="198.8" cy="89.2" r="0.9" fill="#ffffff" opacity="0.2"/><circle cx="319.7" cy="76" r="0.7" fill="#ffffff" opacity="0.2"/><circle cx="278.9" cy="156.6" r="1.9" fill="#ffffff" opacity="0.1"/><circle cx="224.7" cy="4.1" r="1.8" fill="#ffffff" opacity="0.2"/><circle cx="139" cy="101.1" r="0.9" fill="#ffffff" opacity="0.2"/><circle cx="45" cy="65.2" r="1.3" fill="#ffffff" opacity="0.1"/><circle cx="223.8" cy="50.5" r="1.1" fill="#ffffff" opacity="0.2"/><circle cx="235.2" cy="102.8" r="1.1" fill="#ffffff" opacity="0.1"/><circle cx="255.2" cy="112.2" r="1.4" fill="#ffffff" opacity="0.2"/><circle cx="75.2" cy="136.5" r="0.7" fill="#ffffff" opacity="0.1"/><circle cx="35.9" cy="106.3" r="0.7" fill="#ffffff" opacity="0.2"/>
<path d="M-38.8 170 L95.6 0 L134.4 0 L0 170 Z" fill="#ffffff" opacity="0.05"/>
<rect width="320" height="170" fill="url(#w1q3byrzs)"/>
<path d="M160 113 C 120 81 136 33 160 33 C 184 33 200 81 160 113 Z" fill="none" stroke="rgba(255,255,255,0.82)" stroke-width="2"/><line x1="160" y1="33" x2="160" y2="113" stroke="rgba(255,255,255,0.82)" stroke-width="1.4"/>
<text x="160" y="148" text-anchor="middle" font-family="Inter, system-ui, sans-serif" font-size="13" font-weight="600" letter-spacing="3.4" fill="#ffffff" fill-opacity="0.72">SAGE</text>
<rect x="1" y="1" width="318" height="168" fill="none" stroke="#ffffff" stroke-opacity="0.14" rx="6"/>
</svg>
