<svg xmlns="http://www.w3.org/2000/svg" viewBox="0 0 320 170" width="320" height="170" role="img" aria-label="Boost">
<defs>
<linearGradient id="w1kalr64g" x1="0" y1="0" x2="1" y2="1">
<stop offset="0" stop-color="#5a6f7b" stop-opacity="0.95"/>
<stop offset="1" stop-color="#161815" stop-opacity="0.95"/>
</linearGradient>
<radialGradient id="w1kalr64s" cx="0.5" cy="0.42" r="0.6">
<stop offset="0" stop-color="#ffffff" stop-opacity="0.16"/>
<stop offset="1" stop-color="#ffffff" stop-opacity="0"/>
</radialGradient>
</defs>
<rect width="320" height="170" fill="#161815"/>
<rect width="320" height="170" fill="url(#w1kalr64g)"/>
<circle cx="266" cy="44.8" r="0.7" fill="#ffffff" opacity="0.1"/><circle cx="38.9" cy="87.1" r="1.7" fill="#ffffff" opacity="0.2"/><circle cx="14.7" cy="23.3" r="2.1" fill="#ffffff" opacity="0.2"/><circle cx="203.7" cy="166.4" r="1.9" fill="#ffffff" opacity="0.2"/><circle cx="255.5" cy="50.4" r="1.3" fill="#ffffff" opacity="0.1"/><circle cx="56.6" cy="35.6" r="1.1" fill="#ffffff" opacity="0.2"/><circle cx="161" cy="79.6" r="1" fill="#ffffff" opacity="0.1"/><circle cx="103.3" cy="33.8" r="1.1" fill="#ffffff" opacity="0.1"/><circle cx="24.3" cy="18.9" r="0.8" fill="#ffffff" opacity="0.2"/><circle cx="45.3" cy="11.3" r="0.8" fill="#ffffff" opacity="0.1"/><circle cx="162.3" cy="156.8" r="1" fill="#ffffff" opacity="0.1"/><circle cx="84.8" cy="3.5" r="0.8" fill="#ffffff" opacity="0.2"/><circle cx="301.5" cy="100.3" r="0.8" fill="#ffffff" opacity="0.2"/><circle cx="263" cy="163.3" r="1.4" fill="#ffffff" opacity="0.1"/><circle cx="99.2" cy="21.3" r="1.5" fill="#ffffff" opacity="0.1"/><circle cx="116.9" cy="27.8" r="1" fill="#ffffff" opacity="0.2"/><circle cx="55.4" cy="24.2" r="1.5" fill="#ffffff" opacity="0.1"/><circle cx="304.3" cy="86.8" r="1.2" fill="#ffffff" opacity="0.1"/><circle cx="232.5" cy="33.9" r="2.1" fill="#ffffff" opacity="0.1"/><circle cx="78" cy="93" r="1.3" fill="#ffffff" opacity="0.1"/><circle cx="117.8" cy="106.8" r="0.7" fill="#ffffff" opacity="0.1"/><circle cx="173.5" cy="131.1" r="1.2" fill="#ffffff" opacity="0.2"/><circle cx="164.4" cy="52" r="2" fill="#ffffff" opacity="0.1"/>
<path d="M-28.6 170 L105.8 0 L134.4 0 L0 170 Z" fill="#ffffff" opacity="0.05"/>
<rect width="320" height="170" fill="url(#w1kalr64s)"/>
<path d="M132 59 L188 87" stroke="rgba(255,255,255,0.82)" stroke-width="2.4" stroke-linecap="round"/><circle cx="128.8" cy="51" r="8.8" fill="none" stroke="rgba(255,255,255,0.82)" stroke-width="1.8"/><circle cx="140" cy="44.2" r="8" fill="none" stroke="rgba(255,255,255,0.82)" stroke-width="1.8"/><circle cx="191.2" cy="95" r="8.8" fill="none" stroke="rgba(255,255,255,0.82)" stroke-width="1.8"/><circle cx="180" cy="101.8" r="8" fill="none" stroke="rgba(255,255,255,0.82)" stroke-width="1.8"/>
<text x="160" y="148" text-anchor="middle" font-family="Inter, system-ui, sans-serif" font-size="13" font-weight="600" letter-spacing="3.4" fill="#ffffff" fill-opacity="0.72">BONE</text>
<rect x="1" y="1" width="318" height="168" fill="none" stroke="#ffffff" stroke-opacity="0.14" rx="6"/>
</svg>
