<svg xmlns="http://www.w3.org/2000/svg" viewBox="0 0 320 170" width="320" height="170" role="img" aria-label="Geschickte Manöver">
<defs>
<linearGradient id="wmscls2g" x1="0" y1="0" x2="1" y2="1">
<stop offset="0" stop-color="#5a6f7b" stop-opacity="0.95"/>
<stop offset="1" stop-color="#161815" stop-opacity="0.95"/>
</linearGradient>
<radialGradient id="wmscls2s" cx="0.5" cy="0.42" r="0.6">
<stop offset="0" stop-color="#ffffff" stop-opacity="0.16"/>
<stop offset="1" stop-color="#ffffff" stop-opacity="0"/>
</radialGradient>
</defs>
<rect width="320" height="170" fill="#161815"/>
<rect width="320" height="170" fill="url(#wmscls2g)"/>
<circle cx="149.8" cy="65.6" r="1.7" fill="#ffffff" opacity="0.1"/><circle cx="253" cy="13.3" r="1.5" fill="#ffffff" opacity="0.1"/><circle cx="41.3" cy="15.4" r="1" fill="#ffffff" opacity="0.1"/><circle cx="151" cy="38.7" r="2" fill="#ffffff" opacity="0.1"/><circle cx="219.5" cy="58.6" r="1.9" fill="#ffffff" opacity="0.2"/><circle cx="1" cy="86" r="2" fill="#ffffff" opacity="0.2"/><circle cx="283.4" cy="23.1" r="1.1" fill="#ffffff" opacity="0.1"/><circle cx="215.6" cy="84.3" r="1.8" fill="#ffffff" opacity="0.2"/><circle cx="255.8" cy="95.8" r="0.8" fill="#ffffff" opacity="0.1"/><circle cx="244.4" cy="133.2" r="1" fill="#ffffff" opacity="0.2"/><circle cx="0.6" cy="33.3" r="1.2" fill="#ffffff" opacity="0.1"/><circle cx="187.1" cy="140.5" r="1.4" fill="#ffffff" opacity="0.1"/><circle cx="236.8" cy="47.2" r="2" fill="#ffffff" opacity="0.1"/><circle cx="160.4" cy="146.2" r="1" fill="#ffffff" opacity="0.1"/><circle cx="113.8" cy="108.3" r="0.8" fill="#ffffff" opacity="0.2"/><circle cx="220.7" cy="130.1" r="1.8" fill="#ffffff" opacity="0.2"/><circle cx="72" cy="149.4" r="0.9" fill="#ffffff" opacity="0.2"/><circle cx="218.8" cy="114.7" r="1" fill="#ffffff" opacity="0.1"/><circle cx="241.1" cy="47" r="1.7" fill="#ffffff" opacity="0.2"/><circle cx="63.4" cy="25.4" r="0.8" fill="#ffffff" opacity="0.1"/><circle cx="254.3" cy="78.1" r="1.2" fill="#ffffff" opacity="0.1"/>
<path d="M-43.8 170 L90.6 0 L134.4 0 L0 170 Z" fill="#ffffff" opacity="0.05"/>
<rect width="320" height="170" fill="url(#wmscls2s)"/>
<path d="M132 59 L188 87" stroke="rgba(255,255,255,0.82)" stroke-width="2.4" stroke-linecap="round"/><circle cx="128.8" cy="51" r="8.8" fill="none" stroke="rgba(255,255,255,0.82)" stroke-width="1.8"/><circle cx="140" cy="44.2" r="8" fill="none" stroke="rgba(255,255,255,0.82)" stroke-width="1.8"/><circle cx="191.2" cy="95" r="8.8" fill="none" stroke="rgba(255,255,255,0.82)" stroke-width="1.8"/><circle cx="180" cy="101.8" r="8" fill="none" stroke="rgba(255,255,255,0.82)" stroke-width="1.8"/>
<text x="160" y="148" text-anchor="middle" font-family="Inter, system-ui, sans-serif" font-size="13" font-weight="600" letter-spacing="3.4" fill="#ffffff" fill-opacity="0.72">BONE</text>
<rect x="1" y="1" width="318" height="168" fill="none" stroke="#ffffff" stroke-opacity="0.14" rx="6"/>
</svg>
