<svg xmlns="http://www.w3.org/2000/svg" viewBox="0 0 320 170" width="320" height="170" role="img" aria-label="Weiterleiten">
<defs>
<linearGradient id="w17fglaag" x1="0" y1="0" x2="1" y2="1">
<stop offset="0" stop-color="#5a6f7b" stop-opacity="0.95"/>
<stop offset="1" stop-color="#161815" stop-opacity="0.95"/>
</linearGradient>
<radialGradient id="w17fglaas" cx="0.5" cy="0.42" r="0.6">
<stop offset="0" stop-color="#ffffff" stop-opacity="0.16"/>
<stop offset="1" stop-color="#ffffff" stop-opacity="0"/>
</radialGradient>
</defs>
<rect width="320" height="170" fill="#161815"/>
<rect width="320" height="170" fill="url(#w17fglaag)"/>
<circle cx="7.5" cy="74.7" r="0.8" fill="#ffffff" opacity="0.1"/><circle cx="45.6" cy="155" r="0.9" fill="#ffffff" opacity="0.1"/><circle cx="10.5" cy="7.8" r="2" fill="#ffffff" opacity="0.2"/><circle cx="114.5" cy="84" r="1.4" fill="#ffffff" opacity="0.1"/><circle cx="284.2" cy="133.6" r="0.7" fill="#ffffff" opacity="0.1"/><circle cx="265.7" cy="91.3" r="1.3" fill="#ffffff" opacity="0.2"/><circle cx="271.8" cy="104.6" r="1.2" fill="#ffffff" opacity="0.1"/><circle cx="235.1" cy="142.8" r="1.1" fill="#ffffff" opacity="0.1"/><circle cx="92.9" cy="68.9" r="0.8" fill="#ffffff" opacity="0.2"/><circle cx="53.3" cy="41.6" r="1" fill="#ffffff" opacity="0.1"/><circle cx="296.8" cy="95.7" r="0.6" fill="#ffffff" opacity="0.2"/><circle cx="29.2" cy="129.2" r="1.7" fill="#ffffff" opacity="0.1"/><circle cx="222.2" cy="77.4" r="1.7" fill="#ffffff" opacity="0.2"/><circle cx="291.3" cy="65.6" r="1.8" fill="#ffffff" opacity="0.1"/><circle cx="182.9" cy="159.4" r="1.6" fill="#ffffff" opacity="0.2"/><circle cx="124.6" cy="73.8" r="2" fill="#ffffff" opacity="0.2"/><circle cx="210.5" cy="143" r="1.3" fill="#ffffff" opacity="0.2"/><circle cx="164.5" cy="72.5" r="2.1" fill="#ffffff" opacity="0.2"/><circle cx="76.6" cy="18.1" r="1.2" fill="#ffffff" opacity="0.1"/><circle cx="146.4" cy="135.5" r="0.9" fill="#ffffff" opacity="0.2"/><circle cx="252.9" cy="15.3" r="1.7" fill="#ffffff" opacity="0.2"/>
<path d="M-49.5 170 L84.9 0 L134.4 0 L0 170 Z" fill="#ffffff" opacity="0.05"/>
<rect width="320" height="170" fill="url(#w17fglaas)"/>
<path d="M132 59 L188 87" stroke="rgba(255,255,255,0.82)" stroke-width="2.4" stroke-linecap="round"/><circle cx="128.8" cy="51" r="8.8" fill="none" stroke="rgba(255,255,255,0.82)" stroke-width="1.8"/><circle cx="140" cy="44.2" r="8" fill="none" stroke="rgba(255,255,255,0.82)" stroke-width="1.8"/><circle cx="191.2" cy="95" r="8.8" fill="none" stroke="rgba(255,255,255,0.82)" stroke-width="1.8"/><circle cx="180" cy="101.8" r="8" fill="none" stroke="rgba(255,255,255,0.82)" stroke-width="1.8"/>
<text x="160" y="148" text-anchor="middle" font-family="Inter, system-ui, sans-serif" font-size="13" font-weight="600" letter-spacing="3.4" fill="#ffffff" fill-opacity="0.72">BONE</text>
<rect x="1" y="1" width="318" height="168" fill="none" stroke="#ffffff" stroke-opacity="0.14" rx="6"/>
</svg>
