<svg xmlns="http://www.w3.org/2000/svg" viewBox="0 0 320 170" width="320" height="170" role="img" aria-label="Ursprünglicher Ursprung">
<defs>
<linearGradient id="w1l2il17g" x1="0" y1="0" x2="1" y2="1">
<stop offset="0" stop-color="#755391" stop-opacity="0.95"/>
<stop offset="1" stop-color="#161815" stop-opacity="0.95"/>
</linearGradient>
<radialGradient id="w1l2il17s" cx="0.5" cy="0.42" r="0.6">
<stop offset="0" stop-color="#ffffff" stop-opacity="0.16"/>
<stop offset="1" stop-color="#ffffff" stop-opacity="0"/>
</radialGradient>
</defs>
<rect width="320" height="170" fill="#161815"/>
<rect width="320" height="170" fill="url(#w1l2il17g)"/>
<circle cx="233.7" cy="78.4" r="1.6" fill="#ffffff" opacity="0.1"/><circle cx="10.7" cy="82.6" r="1" fill="#ffffff" opacity="0.1"/><circle cx="196.7" cy="77.7" r="1.9" fill="#ffffff" opacity="0.2"/><circle cx="210.4" cy="147.1" r="1" fill="#ffffff" opacity="0.2"/><circle cx="200.3" cy="36.2" r="1.4" fill="#ffffff" opacity="0.2"/><circle cx="56.3" cy="89.8" r="1.3" fill="#ffffff" opacity="0.1"/><circle cx="133.4" cy="137.3" r="1.4" fill="#ffffff" opacity="0.2"/><circle cx="100.5" cy="69.7" r="1.1" fill="#ffffff" opacity="0.1"/><circle cx="156.6" cy="48.6" r="2.1" fill="#ffffff" opacity="0.1"/><circle cx="294.5" cy="29.7" r="1.3" fill="#ffffff" opacity="0.2"/><circle cx="263" cy="76.5" r="1.8" fill="#ffffff" opacity="0.1"/><circle cx="182.6" cy="123.1" r="2.1" fill="#ffffff" opacity="0.2"/><circle cx="185" cy="62.3" r="0.8" fill="#ffffff" opacity="0.1"/><circle cx="40.7" cy="9.8" r="1.6" fill="#ffffff" opacity="0.1"/>
<path d="M-36.4 170 L98 0 L134.4 0 L0 170 Z" fill="#ffffff" opacity="0.05"/>
<rect width="320" height="170" fill="url(#w1l2il17s)"/>
<circle cx="160" cy="73" r="36.8" fill="none" stroke="rgba(255,255,255,0.82)" stroke-width="2"/><line x1="196.8" y1="73" x2="141.6" y2="104.9" stroke="rgba(255,255,255,0.82)" stroke-width="1.4" opacity="0.8"/><line x1="178.4" y1="104.9" x2="123.2" y2="73" stroke="rgba(255,255,255,0.82)" stroke-width="1.4" opacity="0.8"/><line x1="141.6" y1="104.9" x2="141.6" y2="41.1" stroke="rgba(255,255,255,0.82)" stroke-width="1.4" opacity="0.8"/><line x1="123.2" y1="73" x2="178.4" y2="41.1" stroke="rgba(255,255,255,0.82)" stroke-width="1.4" opacity="0.8"/><line x1="141.6" y1="41.1" x2="196.8" y2="73" stroke="rgba(255,255,255,0.82)" stroke-width="1.4" opacity="0.8"/><line x1="178.4" y1="41.1" x2="178.4" y2="104.9" stroke="rgba(255,255,255,0.82)" stroke-width="1.4" opacity="0.8"/>
<text x="160" y="148" text-anchor="middle" font-family="Inter, system-ui, sans-serif" font-size="13" font-weight="600" letter-spacing="3.4" fill="#ffffff" fill-opacity="0.72">ARCANA</text>
<rect x="1" y="1" width="318" height="168" fill="none" stroke="#ffffff" stroke-opacity="0.14" rx="6"/>
</svg>
