<svg xmlns="http://www.w3.org/2000/svg" viewBox="0 0 320 170" width="320" height="170" role="img" aria-label="Wächter der Erneuerung">
<defs>
<linearGradient id="wwtjhkvg" x1="0" y1="0" x2="1" y2="1">
<stop offset="0" stop-color="#4c7650" stop-opacity="0.95"/>
<stop offset="1" stop-color="#161815" stop-opacity="0.95"/>
</linearGradient>
<radialGradient id="wwtjhkvs" cx="0.5" cy="0.42" r="0.6">
<stop offset="0" stop-color="#ffffff" stop-opacity="0.16"/>
<stop offset="1" stop-color="#ffffff" stop-opacity="0"/>
</radialGradient>
</defs>
<rect width="320" height="170" fill="#161815"/>
<rect width="320" height="170" fill="url(#wwtjhkvg)"/>
<circle cx="51.6" cy="51.7" r="0.7" fill="#ffffff" opacity="0.1"/><circle cx="54.1" cy="87.9" r="1.1" fill="#ffffff" opacity="0.2"/><circle cx="96.1" cy="148.8" r="1.4" fill="#ffffff" opacity="0.1"/><circle cx="255.5" cy="47" r="2" fill="#ffffff" opacity="0.2"/><circle cx="37.5" cy="17.4" r="1" fill="#ffffff" opacity="0.1"/><circle cx="239.7" cy="38.6" r="1.5" fill="#ffffff" opacity="0.1"/><circle cx="3.2" cy="14.1" r="2" fill="#ffffff" opacity="0.1"/><circle cx="74.1" cy="59.3" r="1.9" fill="#ffffff" opacity="0.2"/><circle cx="229.8" cy="167.7" r="1.3" fill="#ffffff" opacity="0.2"/><circle cx="137.8" cy="158.9" r="0.7" fill="#ffffff" opacity="0.1"/><circle cx="154.7" cy="156.3" r="1.3" fill="#ffffff" opacity="0.2"/><circle cx="223.7" cy="95.4" r="2" fill="#ffffff" opacity="0.1"/><circle cx="223.7" cy="20.3" r="1.8" fill="#ffffff" opacity="0.2"/><circle cx="225.5" cy="153.9" r="1.2" fill="#ffffff" opacity="0.1"/><circle cx="66.5" cy="45.6" r="1.8" fill="#ffffff" opacity="0.1"/><circle cx="230.6" cy="128.3" r="1.3" fill="#ffffff" opacity="0.2"/><circle cx="241.3" cy="153.6" r="1.1" fill="#ffffff" opacity="0.1"/><circle cx="73.4" cy="149.2" r="0.8" fill="#ffffff" opacity="0.2"/><circle cx="265.9" cy="80.9" r="1" fill="#ffffff" opacity="0.2"/><circle cx="35" cy="88.7" r="0.7" fill="#ffffff" opacity="0.1"/>
<path d="M-24.9 170 L109.5 0 L134.4 0 L0 170 Z" fill="#ffffff" opacity="0.05"/>
<rect width="320" height="170" fill="url(#wwtjhkvs)"/>
<path d="M160 113 C 120 81 136 33 160 33 C 184 33 200 81 160 113 Z" fill="none" stroke="rgba(255,255,255,0.82)" stroke-width="2"/><line x1="160" y1="33" x2="160" y2="113" stroke="rgba(255,255,255,0.82)" stroke-width="1.4"/>
<text x="160" y="148" text-anchor="middle" font-family="Inter, system-ui, sans-serif" font-size="13" font-weight="600" letter-spacing="3.4" fill="#ffffff" fill-opacity="0.72">SAGE</text>
<rect x="1" y="1" width="318" height="168" fill="none" stroke="#ffffff" stroke-opacity="0.14" rx="6"/>
</svg>
