<svg xmlns="http://www.w3.org/2000/svg" viewBox="0 0 320 170" width="320" height="170" role="img" aria-label="Tiefengeboren">
<defs>
<linearGradient id="wp8b8vag" x1="0" y1="0" x2="1" y2="1">
<stop offset="0" stop-color="#765d85" stop-opacity="0.95"/>
<stop offset="1" stop-color="#161815" stop-opacity="0.95"/>
</linearGradient>
<radialGradient id="wp8b8vas" cx="0.5" cy="0.42" r="0.6">
<stop offset="0" stop-color="#ffffff" stop-opacity="0.16"/>
<stop offset="1" stop-color="#ffffff" stop-opacity="0"/>
</radialGradient>
</defs>
<rect width="320" height="170" fill="#161815"/>
<rect width="320" height="170" fill="url(#wp8b8vag)"/>
<circle cx="101.4" cy="89" r="1.9" fill="#ffffff" opacity="0.1"/><circle cx="21.9" cy="82.9" r="1.2" fill="#ffffff" opacity="0.2"/><circle cx="62.3" cy="106.1" r="1.9" fill="#ffffff" opacity="0.1"/><circle cx="126.4" cy="10.2" r="1.7" fill="#ffffff" opacity="0.2"/><circle cx="0.6" cy="104" r="1.1" fill="#ffffff" opacity="0.2"/><circle cx="56.7" cy="42.9" r="1.4" fill="#ffffff" opacity="0.2"/><circle cx="99.9" cy="20.1" r="1" fill="#ffffff" opacity="0.1"/><circle cx="170.9" cy="158" r="1.4" fill="#ffffff" opacity="0.1"/><circle cx="184.3" cy="54.7" r="1.9" fill="#ffffff" opacity="0.2"/><circle cx="55" cy="32.8" r="0.9" fill="#ffffff" opacity="0.2"/><circle cx="250.4" cy="125.3" r="0.8" fill="#ffffff" opacity="0.1"/><circle cx="199.6" cy="86.7" r="0.7" fill="#ffffff" opacity="0.1"/><circle cx="165.4" cy="4.7" r="1.5" fill="#ffffff" opacity="0.2"/><circle cx="200.4" cy="51.5" r="0.9" fill="#ffffff" opacity="0.1"/><circle cx="106.8" cy="73.7" r="0.6" fill="#ffffff" opacity="0.1"/><circle cx="210.1" cy="33.2" r="2" fill="#ffffff" opacity="0.2"/><circle cx="23.1" cy="83.7" r="1.4" fill="#ffffff" opacity="0.1"/><circle cx="141" cy="71.1" r="1.6" fill="#ffffff" opacity="0.1"/><circle cx="139.3" cy="45.4" r="1" fill="#ffffff" opacity="0.2"/><circle cx="295.6" cy="91.9" r="1.1" fill="#ffffff" opacity="0.2"/><circle cx="23.2" cy="120.5" r="0.9" fill="#ffffff" opacity="0.1"/>
<path d="M-25.9 170 L108.5 0 L134.4 0 L0 170 Z" fill="#ffffff" opacity="0.05"/>
<rect width="320" height="170" fill="url(#wp8b8vas)"/>
<circle cx="160" cy="73" r="36" fill="none" stroke="rgba(255,255,255,0.82)" stroke-width="2"/><circle cx="160" cy="73" r="22" fill="none" stroke="rgba(255,255,255,0.82)" stroke-width="1.4" opacity="0.7"/>
<text x="160" y="148" text-anchor="middle" font-family="Inter, system-ui, sans-serif" font-size="13" font-weight="600" letter-spacing="3.4" fill="#ffffff" fill-opacity="0.72">COMMUNITY</text>
<rect x="1" y="1" width="318" height="168" fill="none" stroke="#ffffff" stroke-opacity="0.14" rx="6"/>
</svg>
