<svg xmlns="http://www.w3.org/2000/svg" viewBox="0 0 320 170" width="320" height="170" role="img" aria-label="Ohne Rüstung">
<defs>
<linearGradient id="w14n2778g" x1="0" y1="0" x2="1" y2="1">
<stop offset="0" stop-color="#9a5d3f" stop-opacity="0.95"/>
<stop offset="1" stop-color="#161815" stop-opacity="0.95"/>
</linearGradient>
<radialGradient id="w14n2778s" cx="0.5" cy="0.42" r="0.6">
<stop offset="0" stop-color="#ffffff" stop-opacity="0.16"/>
<stop offset="1" stop-color="#ffffff" stop-opacity="0"/>
</radialGradient>
</defs>
<rect width="320" height="170" fill="#161815"/>
<rect width="320" height="170" fill="url(#w14n2778g)"/>
<circle cx="165.1" cy="38.9" r="2" fill="#ffffff" opacity="0.2"/><circle cx="137.3" cy="153.3" r="1.8" fill="#ffffff" opacity="0.1"/><circle cx="81" cy="26.5" r="1" fill="#ffffff" opacity="0.1"/><circle cx="258.9" cy="8.3" r="0.7" fill="#ffffff" opacity="0.1"/><circle cx="307.3" cy="57.5" r="1.7" fill="#ffffff" opacity="0.2"/><circle cx="24" cy="162.7" r="2.1" fill="#ffffff" opacity="0.1"/><circle cx="164" cy="125.2" r="0.9" fill="#ffffff" opacity="0.1"/><circle cx="17.4" cy="37.9" r="0.8" fill="#ffffff" opacity="0.1"/><circle cx="70.1" cy="95.7" r="1.8" fill="#ffffff" opacity="0.2"/><circle cx="46.1" cy="87.1" r="2" fill="#ffffff" opacity="0.2"/><circle cx="202.2" cy="160.7" r="0.8" fill="#ffffff" opacity="0.2"/><circle cx="147.2" cy="44.6" r="2" fill="#ffffff" opacity="0.1"/><circle cx="102.6" cy="0.2" r="0.6" fill="#ffffff" opacity="0.1"/><circle cx="5.8" cy="24.6" r="1.4" fill="#ffffff" opacity="0.1"/><circle cx="169.5" cy="58.9" r="1.4" fill="#ffffff" opacity="0.1"/><circle cx="36.8" cy="86.6" r="1.9" fill="#ffffff" opacity="0.2"/>
<path d="M-33.2 170 L101.2 0 L134.4 0 L0 170 Z" fill="#ffffff" opacity="0.05"/>
<rect width="320" height="170" fill="url(#w14n2778s)"/>
<path d="M160 33 L191.2 51 L191.2 81 C 191.2 101.8 160 113 160 113 C 160 113 128.8 101.8 128.8 81 L128.8 51 Z" fill="none" stroke="rgba(255,255,255,0.82)" stroke-width="2"/>
<text x="160" y="148" text-anchor="middle" font-family="Inter, system-ui, sans-serif" font-size="13" font-weight="600" letter-spacing="3.4" fill="#ffffff" fill-opacity="0.72">VALOR</text>
<rect x="1" y="1" width="318" height="168" fill="none" stroke="#ffffff" stroke-opacity="0.14" rx="6"/>
</svg>
