<svg xmlns="http://www.w3.org/2000/svg" viewBox="0 0 320 170" width="320" height="170" role="img" aria-label="Gehen Sie mit gutem Beispiel voran">
<defs>
<linearGradient id="wz7r2tyg" x1="0" y1="0" x2="1" y2="1">
<stop offset="0" stop-color="#9a5d3f" stop-opacity="0.95"/>
<stop offset="1" stop-color="#161815" stop-opacity="0.95"/>
</linearGradient>
<radialGradient id="wz7r2tys" cx="0.5" cy="0.42" r="0.6">
<stop offset="0" stop-color="#ffffff" stop-opacity="0.16"/>
<stop offset="1" stop-color="#ffffff" stop-opacity="0"/>
</radialGradient>
</defs>
<rect width="320" height="170" fill="#161815"/>
<rect width="320" height="170" fill="url(#wz7r2tyg)"/>
<circle cx="98.4" cy="132.5" r="0.7" fill="#ffffff" opacity="0.2"/><circle cx="125.3" cy="145.2" r="0.7" fill="#ffffff" opacity="0.1"/><circle cx="0.8" cy="157.5" r="2" fill="#ffffff" opacity="0.1"/><circle cx="244.7" cy="169" r="1.1" fill="#ffffff" opacity="0.2"/><circle cx="175" cy="7.6" r="1.1" fill="#ffffff" opacity="0.1"/><circle cx="250" cy="145.6" r="1.9" fill="#ffffff" opacity="0.1"/><circle cx="96.3" cy="63.6" r="0.6" fill="#ffffff" opacity="0.1"/><circle cx="61.3" cy="11.4" r="0.9" fill="#ffffff" opacity="0.2"/><circle cx="230.1" cy="117.8" r="0.7" fill="#ffffff" opacity="0.1"/><circle cx="127.5" cy="123.9" r="1.1" fill="#ffffff" opacity="0.2"/><circle cx="179.3" cy="51.1" r="1.3" fill="#ffffff" opacity="0.2"/><circle cx="313.3" cy="85.8" r="1.5" fill="#ffffff" opacity="0.2"/><circle cx="260.9" cy="92.7" r="2" fill="#ffffff" opacity="0.2"/><circle cx="227.5" cy="143.2" r="1.5" fill="#ffffff" opacity="0.1"/><circle cx="224.9" cy="7" r="1.1" fill="#ffffff" opacity="0.1"/><circle cx="225.6" cy="17.7" r="1.4" fill="#ffffff" opacity="0.1"/><circle cx="91.6" cy="36.2" r="1.3" fill="#ffffff" opacity="0.1"/><circle cx="218.9" cy="136.4" r="0.8" fill="#ffffff" opacity="0.2"/><circle cx="187.1" cy="146.8" r="1" fill="#ffffff" opacity="0.1"/><circle cx="155.2" cy="112.8" r="0.7" fill="#ffffff" opacity="0.2"/><circle cx="90.6" cy="111.4" r="1.7" fill="#ffffff" opacity="0.2"/><circle cx="163.7" cy="77.4" r="0.9" fill="#ffffff" opacity="0.1"/><circle cx="67.2" cy="44.4" r="1" fill="#ffffff" opacity="0.2"/>
<path d="M-24.1 170 L110.3 0 L134.4 0 L0 170 Z" fill="#ffffff" opacity="0.05"/>
<rect width="320" height="170" fill="url(#wz7r2tys)"/>
<path d="M160 33 L191.2 51 L191.2 81 C 191.2 101.8 160 113 160 113 C 160 113 128.8 101.8 128.8 81 L128.8 51 Z" fill="none" stroke="rgba(255,255,255,0.82)" stroke-width="2"/>
<text x="160" y="148" text-anchor="middle" font-family="Inter, system-ui, sans-serif" font-size="13" font-weight="600" letter-spacing="3.4" fill="#ffffff" fill-opacity="0.72">VALOR</text>
<rect x="1" y="1" width="318" height="168" fill="none" stroke="#ffffff" stroke-opacity="0.14" rx="6"/>
</svg>
