<svg xmlns="http://www.w3.org/2000/svg" viewBox="0 0 320 170" width="320" height="170" role="img" aria-label="Endloses Charisma">
<defs>
<linearGradient id="w13s3u12g" x1="0" y1="0" x2="1" y2="1">
<stop offset="0" stop-color="#a35479" stop-opacity="0.95"/>
<stop offset="1" stop-color="#161815" stop-opacity="0.95"/>
</linearGradient>
<radialGradient id="w13s3u12s" cx="0.5" cy="0.42" r="0.6">
<stop offset="0" stop-color="#ffffff" stop-opacity="0.16"/>
<stop offset="1" stop-color="#ffffff" stop-opacity="0"/>
</radialGradient>
</defs>
<rect width="320" height="170" fill="#161815"/>
<rect width="320" height="170" fill="url(#w13s3u12g)"/>
<circle cx="315" cy="34.6" r="1.1" fill="#ffffff" opacity="0.1"/><circle cx="289.9" cy="107.2" r="1.2" fill="#ffffff" opacity="0.2"/><circle cx="194.4" cy="119.7" r="1.4" fill="#ffffff" opacity="0.1"/><circle cx="109.6" cy="32.6" r="1" fill="#ffffff" opacity="0.1"/><circle cx="69.3" cy="125.5" r="2" fill="#ffffff" opacity="0.1"/><circle cx="263.9" cy="4.5" r="2" fill="#ffffff" opacity="0.2"/><circle cx="133.9" cy="83.2" r="0.8" fill="#ffffff" opacity="0.1"/><circle cx="306.1" cy="63.9" r="0.7" fill="#ffffff" opacity="0.2"/><circle cx="18.2" cy="36.2" r="1.7" fill="#ffffff" opacity="0.1"/><circle cx="31.3" cy="75.6" r="0.6" fill="#ffffff" opacity="0.2"/><circle cx="1.2" cy="84.6" r="1.7" fill="#ffffff" opacity="0.1"/><circle cx="92.1" cy="91.9" r="1.4" fill="#ffffff" opacity="0.1"/><circle cx="299.5" cy="113.2" r="1.3" fill="#ffffff" opacity="0.1"/><circle cx="311.6" cy="93.5" r="0.9" fill="#ffffff" opacity="0.1"/><circle cx="50.5" cy="55.4" r="1.1" fill="#ffffff" opacity="0.1"/><circle cx="109.3" cy="111" r="1" fill="#ffffff" opacity="0.2"/><circle cx="236.2" cy="66.6" r="1.7" fill="#ffffff" opacity="0.1"/><circle cx="150.3" cy="45.7" r="2.1" fill="#ffffff" opacity="0.1"/>
<path d="M-40.6 170 L93.8 0 L134.4 0 L0 170 Z" fill="#ffffff" opacity="0.05"/>
<rect width="320" height="170" fill="url(#w13s3u12s)"/>
<path d="M120 73 C 140 45 140 101 160 73 C 180 45 180 101 200 73" fill="none" stroke="rgba(255,255,255,0.82)" stroke-width="2"/><path d="M128 93 C 144 69 144 117 160 93 C 176 69 176 117 192 93" fill="none" stroke="rgba(255,255,255,0.82)" stroke-width="1.3" opacity="0.6"/>
<text x="160" y="148" text-anchor="middle" font-family="Inter, system-ui, sans-serif" font-size="13" font-weight="600" letter-spacing="3.4" fill="#ffffff" fill-opacity="0.72">GRACE</text>
<rect x="1" y="1" width="318" height="168" fill="none" stroke="#ffffff" stroke-opacity="0.14" rx="6"/>
</svg>
