<svg xmlns="http://www.w3.org/2000/svg" viewBox="0 0 320 170" width="320" height="170" role="img" aria-label="Bezaubern">
<defs>
<linearGradient id="wvufmtxg" x1="0" y1="0" x2="1" y2="1">
<stop offset="0" stop-color="#a35479" stop-opacity="0.95"/>
<stop offset="1" stop-color="#161815" stop-opacity="0.95"/>
</linearGradient>
<radialGradient id="wvufmtxs" cx="0.5" cy="0.42" r="0.6">
<stop offset="0" stop-color="#ffffff" stop-opacity="0.16"/>
<stop offset="1" stop-color="#ffffff" stop-opacity="0"/>
</radialGradient>
</defs>
<rect width="320" height="170" fill="#161815"/>
<rect width="320" height="170" fill="url(#wvufmtxg)"/>
<circle cx="158.7" cy="71.6" r="1.8" fill="#ffffff" opacity="0.1"/><circle cx="241" cy="49" r="0.8" fill="#ffffff" opacity="0.1"/><circle cx="82.3" cy="28.9" r="1.5" fill="#ffffff" opacity="0.1"/><circle cx="228.4" cy="49.5" r="0.7" fill="#ffffff" opacity="0.2"/><circle cx="315" cy="167.8" r="0.7" fill="#ffffff" opacity="0.1"/><circle cx="270.5" cy="73.3" r="1.7" fill="#ffffff" opacity="0.2"/><circle cx="197.9" cy="43.5" r="1.6" fill="#ffffff" opacity="0.1"/><circle cx="190.4" cy="17.2" r="1.5" fill="#ffffff" opacity="0.1"/><circle cx="30.3" cy="98.7" r="1.2" fill="#ffffff" opacity="0.2"/><circle cx="157.4" cy="113.8" r="1.3" fill="#ffffff" opacity="0.2"/><circle cx="149.9" cy="101" r="1.1" fill="#ffffff" opacity="0.2"/><circle cx="5.7" cy="54.4" r="1.3" fill="#ffffff" opacity="0.2"/><circle cx="54.8" cy="5.6" r="1.3" fill="#ffffff" opacity="0.1"/><circle cx="20.5" cy="106.1" r="0.9" fill="#ffffff" opacity="0.1"/><circle cx="33.8" cy="169.1" r="2" fill="#ffffff" opacity="0.1"/><circle cx="296.9" cy="6.3" r="0.7" fill="#ffffff" opacity="0.2"/><circle cx="291.9" cy="72.4" r="1" fill="#ffffff" opacity="0.2"/><circle cx="13.4" cy="26" r="1.9" fill="#ffffff" opacity="0.1"/><circle cx="24.2" cy="114.3" r="1.2" fill="#ffffff" opacity="0.2"/><circle cx="149.6" cy="70.9" r="1.9" fill="#ffffff" opacity="0.2"/><circle cx="25.7" cy="40.2" r="0.8" fill="#ffffff" opacity="0.1"/><circle cx="36" cy="32.9" r="1.3" fill="#ffffff" opacity="0.1"/><circle cx="168.1" cy="36.2" r="1.4" fill="#ffffff" opacity="0.2"/>
<path d="M-35.3 170 L99.1 0 L134.4 0 L0 170 Z" fill="#ffffff" opacity="0.05"/>
<rect width="320" height="170" fill="url(#wvufmtxs)"/>
<path d="M120 73 C 140 45 140 101 160 73 C 180 45 180 101 200 73" fill="none" stroke="rgba(255,255,255,0.82)" stroke-width="2"/><path d="M128 93 C 144 69 144 117 160 93 C 176 69 176 117 192 93" fill="none" stroke="rgba(255,255,255,0.82)" stroke-width="1.3" opacity="0.6"/>
<text x="160" y="148" text-anchor="middle" font-family="Inter, system-ui, sans-serif" font-size="13" font-weight="600" letter-spacing="3.4" fill="#ffffff" fill-opacity="0.72">GRACE</text>
<rect x="1" y="1" width="318" height="168" fill="none" stroke="#ffffff" stroke-opacity="0.14" rx="6"/>
</svg>
