<svg xmlns="http://www.w3.org/2000/svg" viewBox="0 0 320 170" width="320" height="170" role="img" aria-label="Buch Vagras">
<defs>
<linearGradient id="w1numcrdg" x1="0" y1="0" x2="1" y2="1">
<stop offset="0" stop-color="#94723f" stop-opacity="0.95"/>
<stop offset="1" stop-color="#161815" stop-opacity="0.95"/>
</linearGradient>
<radialGradient id="w1numcrds" cx="0.5" cy="0.42" r="0.6">
<stop offset="0" stop-color="#ffffff" stop-opacity="0.16"/>
<stop offset="1" stop-color="#ffffff" stop-opacity="0"/>
</radialGradient>
</defs>
<rect width="320" height="170" fill="#161815"/>
<rect width="320" height="170" fill="url(#w1numcrdg)"/>
<circle cx="294.5" cy="91" r="0.8" fill="#ffffff" opacity="0.1"/><circle cx="276.9" cy="65.2" r="2" fill="#ffffff" opacity="0.1"/><circle cx="245.7" cy="70.1" r="1.2" fill="#ffffff" opacity="0.2"/><circle cx="261.4" cy="7.8" r="1" fill="#ffffff" opacity="0.2"/><circle cx="124.9" cy="8.7" r="1.6" fill="#ffffff" opacity="0.1"/><circle cx="55.1" cy="135.8" r="0.7" fill="#ffffff" opacity="0.2"/><circle cx="135.9" cy="131.5" r="0.9" fill="#ffffff" opacity="0.1"/><circle cx="120.8" cy="99.2" r="1.5" fill="#ffffff" opacity="0.2"/><circle cx="296" cy="114.5" r="0.9" fill="#ffffff" opacity="0.1"/><circle cx="4.8" cy="115.4" r="0.7" fill="#ffffff" opacity="0.1"/><circle cx="114.4" cy="27.8" r="1" fill="#ffffff" opacity="0.1"/><circle cx="196.5" cy="135.7" r="0.7" fill="#ffffff" opacity="0.1"/><circle cx="29.2" cy="25.1" r="1.5" fill="#ffffff" opacity="0.1"/><circle cx="236.6" cy="118.4" r="1.2" fill="#ffffff" opacity="0.2"/><circle cx="129.2" cy="21" r="0.8" fill="#ffffff" opacity="0.2"/><circle cx="149.7" cy="77.3" r="2" fill="#ffffff" opacity="0.1"/><circle cx="224.6" cy="32.8" r="0.9" fill="#ffffff" opacity="0.2"/><circle cx="51.9" cy="111.7" r="1.5" fill="#ffffff" opacity="0.1"/><circle cx="99.1" cy="148" r="2.1" fill="#ffffff" opacity="0.1"/><circle cx="6.1" cy="166.2" r="1.9" fill="#ffffff" opacity="0.2"/><circle cx="164.5" cy="159.8" r="1.5" fill="#ffffff" opacity="0.1"/><circle cx="89.6" cy="163.3" r="1.6" fill="#ffffff" opacity="0.1"/>
<path d="M-42.3 170 L92.1 0 L134.4 0 L0 170 Z" fill="#ffffff" opacity="0.05"/>
<rect width="320" height="170" fill="url(#w1numcrds)"/>
<path d="M126 49 L160 58.6 L194 49 L194 97.8 L160 107.4 L126 97.8 Z" fill="none" stroke="rgba(255,255,255,0.82)" stroke-width="2"/><line x1="160" y1="58.6" x2="160" y2="107.4" stroke="rgba(255,255,255,0.82)" stroke-width="1.6"/>
<text x="160" y="148" text-anchor="middle" font-family="Inter, system-ui, sans-serif" font-size="13" font-weight="600" letter-spacing="3.4" fill="#ffffff" fill-opacity="0.72">CODEX</text>
<rect x="1" y="1" width="318" height="168" fill="none" stroke="#ffffff" stroke-opacity="0.14" rx="6"/>
</svg>
